<svg width="35" height="34" viewBox="0 0 35 34" fill="#31C7CE" xmlns="http://www.w3.org/2000/svg">
<path fill-rule="evenodd" clip-rule="evenodd" d="M8.70541 2.83333H1.91675V5.66666H6.47558L10.3997 23.6272H10.4167V24.0833H28.8334V23.732L31.9402 10.0456L32.419 8.49999H9.928L9.1205 4.80108L8.70541 2.83333ZM28.815 11.3333H10.5471L12.7132 21.25H26.5639L28.815 11.3333V11.3333Z" fill="#31C7CE"/>
<path d="M14.6666 31.1667C15.418 31.1667 16.1387 30.8682 16.6701 30.3368C17.2014 29.8054 17.4999 29.0848 17.4999 28.3333C17.4999 27.5819 17.2014 26.8612 16.6701 26.3299C16.1387 25.7985 15.418 25.5 14.6666 25.5C13.9151 25.5 13.1945 25.7985 12.6631 26.3299C12.1318 26.8612 11.8333 27.5819 11.8333 28.3333C11.8333 29.0848 12.1318 29.8054 12.6631 30.3368C13.1945 30.8682 13.9151 31.1667 14.6666 31.1667ZM27.4166 28.3333C27.4166 29.0848 27.1181 29.8054 26.5867 30.3368C26.0554 30.8682 25.3347 31.1667 24.5833 31.1667C23.8318 31.1667 23.1111 30.8682 22.5798 30.3368C22.0484 29.8054 21.7499 29.0848 21.7499 28.3333C21.7499 27.5819 22.0484 26.8612 22.5798 26.3299C23.1111 25.7985 23.8318 25.5 24.5833 25.5C25.3347 25.5 26.0554 25.7985 26.5867 26.3299C27.1181 26.8612 27.4166 27.5819 27.4166 28.3333V28.3333Z" fill="#31C7CE"/>
</svg>
